<?xml version="1.0" encoding="utf-8"?>
<!-- Uploaded to: SVG Repo, www.svgrepo.com, Generator: SVG Repo Mixer Tools -->
<svg fill="#000000" width="800px" height="800px" viewBox="0 0 32 32" version="1.1" xmlns="http://www.w3.org/2000/svg">
<title>dinosaur</title>
<path d="M30.264 9.926c-1.587-1.429-3.261-2.704-4.955-3.779-0.41-1.556-3.809-4.811-5.851-2.987-1.467-2.177-4.524-2.21-6.663-1.288-6.523-0.503-10.228 2.452-11.636 7.827v21.228h11.811c-0.33-3.472 0.354-7.27 1.788-9.803 2.398 0.605 5.224 1.179 8.439 1.853 2.55 0.534 3.542-1.126 4.202-4.074l-1.998 1.351-0.626-2.771-2.849 1.927-0.673-2.979-2.699 1.825-0.667-2.953-2.733 1.848-0.936-4.143 4.42-2.989 0.667 2.953 2.733-1.848 0.673 2.979 2.699-1.825 0.626 2.771 2.849-1.927 0.481 2.127c1.301-1.684 2.198-4.154 0.898-5.323z"></path>
</svg>